# xmcd
#
# Track frame offsets:
#	150
#	24212
#	40362
#	56705
#	76065
#	102280
#	117320
#	130617
#	143460
#	169462
#	180762
#
# Disc length: 2605 seconds
#
# Revision: 0
# Processed by: cddbd v1.5.2PL0 Copyright (c) Steve Scherf et al.
# Submitted via: audiograbber 1.83.01
#
DISCID=810a2b0b
DTITLE=Alice Cooper - The Studio Albums 1969-1983 [CD 08) - Welcome To My Night
DTITLE=mare
DYEAR=1975
DGENRE=Rock
TTITLE0=Welcome To My Nightmare
TTITLE1=Devil's Food
TTITLE2=The Black Widow
TTITLE3=Some Folks
TTITLE4=Only Women Bleed
TTITLE5=Department Of Youth
TTITLE6=Cold Ethyl
TTITLE7=Years Ago
TTITLE8=Steven
TTITLE9=The Awakening
TTITLE10=Escape
EXTD=
EXTT0=
EXTT1=
EXTT2=
EXTT3=
EXTT4=
EXTT5=
EXTT6=
EXTT7=
EXTT8=
EXTT9=
EXTT10=
PLAYORDER=
